<?xml version="1.0" standalone="no"?>
<!DOCTYPE svg PUBLIC "-//W3C//DTD SVG 20010904//EN"
 "http://www.w3.org/TR/2001/REC-SVG-20010904/DTD/svg10.dtd">
<svg version="1.0" xmlns="http://www.w3.org/2000/svg"
 width="200.000000pt" height="200.000000pt" viewBox="0 0 200.000000 200.000000"
 preserveAspectRatio="xMidYMid meet">
<metadata>
Created by potrace 1.14, written by Peter Selinger 2001-2017
</metadata>
<g transform="translate(0.000000,200.000000) scale(0.100000,-0.100000)"
fill="#000000" stroke="none">
<path d="M892 1713 c-20 -7 -38 -13 -39 -13 -3 0 -198 -163 -272 -229 -88 -76
-146 -127 -216 -186 -162 -138 -231 -200 -246 -222 -21 -32 -13 -68 22 -97 24
-20 34 -23 59 -16 22 6 338 262 370 300 3 3 66 58 140 121 235 201 246 207
311 174 30 -16 290 -243 578 -505 98 -88 133 -105 173 -82 15 9 32 29 38 45
13 38 -4 71 -66 122 -54 45 -329 281 -419 360 -243 212 -272 232 -354 238 -23
2 -58 -2 -79 -10z"/>
<path d="M854 1352 c-55 -48 -116 -100 -135 -117 -20 -16 -122 -104 -227 -194
l-191 -164 5 -56 c22 -279 239 -511 522 -561 101 -18 268 -8 358 22 241 80
402 283 429 540 7 62 21 44 -155 198 -40 36 -83 74 -95 85 -11 11 -59 54 -105
95 -47 41 -90 79 -96 85 -27 25 -93 83 -132 118 -23 20 -50 37 -60 37 -9 0
-62 -40 -118 -88z m57 -394 c10 -15 7 -163 -3 -173 -12 -12 -156 -9 -171 4
-16 12 -22 147 -8 169 13 22 168 22 182 0z m279 7 c12 -7 14 -154 2 -173 -5
-8 -36 -13 -87 -14 -96 -2 -104 5 -100 100 3 87 2 81 25 90 24 9 144 7 160 -3z
m-280 -285 c12 -19 10 -151 -3 -167 -6 -9 -37 -13 -88 -13 -65 0 -80 3 -88 18
-15 28 -12 149 3 165 20 20 164 17 176 -3z m278 6 c16 -10 17 -157 0 -174 -7
-7 -43 -12 -90 -12 -92 0 -95 4 -93 100 2 96 3 97 93 95 42 0 83 -4 90 -9z"/>
</g>
</svg>
